<?xml version="1.0" encoding="utf-8"?>
<!-- Generator: Adobe Illustrator 16.0.0, SVG Export Plug-In . SVG Version: 6.00 Build 0)  -->
<!DOCTYPE svg PUBLIC "-//W3C//DTD SVG 1.0//EN" "http://www.w3.org/TR/2001/REC-SVG-20010904/DTD/svg10.dtd">
<svg version="1.0" xmlns="http://www.w3.org/2000/svg" xmlns:xlink="http://www.w3.org/1999/xlink" x="0px" y="0px" width="512px"
	 height="512px" viewBox="0 0 512 512" enable-background="new 0 0 512 512" xml:space="preserve">
<g id="Background_Color">
	<rect fill="#49200B" width="512" height="512"/>
</g>
<g id="Container">
	<path fill="#AEC7CE" d="M297.451,223H298C298,223,297.716,221.704,297.451,223z"/>
	<g>
		<path fill="#49200B" d="M255.999,438.791c-59.846,0-117.979-11.537-172.789-34.291l-13.477-5.594L114.172,256L69.733,113.091
			l13.477-5.594c54.812-22.751,112.947-34.287,172.789-34.287c59.841,0,117.976,11.536,172.79,34.287l13.478,5.594L397.825,256
			l44.441,142.906L428.79,404.5C373.979,427.254,315.843,438.791,255.999,438.791z"/>
		<linearGradient id="SVGID_1_" gradientUnits="userSpaceOnUse" x1="256.0005" y1="418.333" x2="256.0005" y2="95.8455">
			<stop  offset="0" style="stop-color:#E7AC8F"/>
			<stop  offset="1" style="stop-color:#B07C58"/>
		</linearGradient>
		<path fill="url(#SVGID_1_)" d="M422.655,122.274c-51.328-21.304-107.621-33.064-166.656-33.064
			c-59.036,0-115.328,11.76-166.654,33.064L130.928,256L89.345,389.723c51.326,21.308,107.618,33.068,166.654,33.068
			c59.035,0,115.328-11.761,166.656-33.068L381.069,256L422.655,122.274z"/>
		<path fill="#49200B" d="M372.935,256l40.182-129.211c-23.414-9.263-47.748-16.462-72.428-21.424
			c-27.689-5.57-56.188-8.392-84.689-8.392c-28.504,0-56.995,2.822-84.686,8.392c-24.684,4.962-49.014,12.161-72.434,21.424
			L139.062,256L98.88,385.209c23.42,9.263,47.75,16.465,72.434,21.426c27.69,5.568,56.182,8.393,84.686,8.393
			c28.502,0,57-2.824,84.689-8.393c24.68-4.961,49.014-12.163,72.428-21.426L372.935,256z"/>
		<g>
			<linearGradient id="SVGID_2_" gradientUnits="userSpaceOnUse" x1="255.9995" y1="418.332" x2="255.9995" y2="95.8461">
				<stop  offset="0" style="stop-color:#E7AC8F"/>
				<stop  offset="1" style="stop-color:#B07C58"/>
			</linearGradient>
			<path fill="url(#SVGID_2_)" d="M366.163,256l38.982-125.357c-21.334-8.085-43.422-14.448-65.73-18.936
				c-27.275-5.482-55.34-8.263-83.416-8.263s-56.141,2.781-83.41,8.263c-22.316,4.488-44.398,10.851-65.736,18.936
				C114.569,155.453,145.834,256,145.834,256l-38.981,125.357c21.338,8.085,43.42,14.447,65.736,18.934
				c27.27,5.484,55.334,8.266,83.41,8.266s56.141-2.781,83.416-8.266c22.309-4.486,44.396-10.849,65.73-18.934L366.163,256z"/>
		</g>
		<g>
			<path fill="#49200B" d="M285.39,393.407c-0.912,0.088-1.719-0.581-1.807-1.491l-0.443-4.705c-0.088-0.912,0.584-1.719,1.49-1.807
				l3.953-0.375l-2.238-23.634l-3.955,0.374c-0.912,0.088-1.719-0.582-1.807-1.494l-0.443-4.705
				c-0.088-0.908,0.578-1.716,1.49-1.804l14.311-1.359c0.912-0.085,1.719,0.585,1.807,1.497l0.445,4.701
				c0.088,0.91-0.586,1.72-1.492,1.808l-4.1,0.389l2.24,23.635l4.1-0.39c0.912-0.087,1.719,0.582,1.807,1.494l0.445,4.705
				c0.088,0.91-0.58,1.72-1.492,1.805L285.39,393.407z"/>
			<path fill="#49200B" d="M276.104,353.527c0.912,0,1.654,0.745,1.648,1.66l-0.029,11.865c-0.006,0.916-0.748,1.656-1.666,1.652
				l-2.871-0.008c-1.516-0.004-2.105-1.018-2.1-2.199l0.006-3.126c0.006-1.351-0.756-1.825-1.598-1.825l-7.496-0.023l-0.064,23.744
				l4.117,0.012c0.912,0.002,1.654,0.745,1.648,1.66l-0.012,4.725c-0.006,0.916-0.748,1.656-1.66,1.652l-14.375-0.041
				c-0.918-0.002-1.654-0.748-1.654-1.664l0.018-4.722c0-0.915,0.742-1.657,1.66-1.651l3.971,0.008l0.07-23.74l-6.567-0.02
				c-0.842,0-1.608,0.467-1.608,1.818l-0.012,3.123c0,1.182-0.596,2.193-2.117,2.189l-2.871-0.008
				c-0.912-0.004-1.654-0.749-1.648-1.661l0.035-11.866c0-0.914,0.742-1.658,1.66-1.654L276.104,353.527z"/>
			<path fill="#49200B" d="M208.442,351.799c0.9,0.178,1.486,1.05,1.305,1.947l-2.299,11.641c-0.182,0.897-1.053,1.482-1.947,1.305
				l-2.818-0.557c-1.486-0.295-1.871-1.402-1.644-2.561l0.608-3.064c0.258-1.328-0.393-1.936-1.223-2.1l-7.351-1.453l-4.603,23.293
				l4.035,0.797c0.9,0.176,1.485,1.047,1.311,1.945l-0.918,4.637c-0.176,0.898-1.053,1.482-1.948,1.305l-14.099-2.787
				c-0.901-0.178-1.486-1.049-1.305-1.947l0.912-4.635c0.182-0.896,1.053-1.482,1.947-1.303l3.895,0.768l4.604-23.289l-6.439-1.275
				c-0.83-0.163-1.666,0.152-1.93,1.477l-0.603,3.064c-0.228,1.158-1.006,2.039-2.497,1.743l-2.812-0.556
				c-0.9-0.178-1.486-1.049-1.305-1.947l2.299-11.641c0.176-0.897,1.047-1.482,1.947-1.304L208.442,351.799z"/>
			<path fill="#49200B" d="M162.782,356.261l3.467,0.896c0.988,0.257,1.598-0.646,1.854-1.635l1.393-5.395
				c0.824-3.205-1.1-6.471-4.305-7.296l-20.064-5.176c-3.198-0.827-6.467,1.1-7.292,4.302l-2.597,10.053
				c-0.947,3.682,0.977,6.594,4.865,7.596l17.27,4.453c1.205,0.313,1.777,1.293,1.434,2.639l-1.387,5.377
				c-0.223,0.848-1.105,1.525-2.141,1.257l-16.415-4.233c-0.988-0.258-1.251-1.004-0.977-2.064l0.802-3.114
				c0.292-1.132-0.164-2.003-1.152-2.261l-2.912-0.748c-1.064-0.275-1.737,0.217-2.047,1.421l-1.737,6.739
				c-0.831,3.202,1.1,6.469,4.298,7.296l20.064,5.175c3.199,0.825,6.469-1.099,7.293-4.303l2.777-10.762
				c1.076-4.175-1.041-6.76-4.508-7.657l-17.48-4.509c-1.415-0.365-1.994-1.646-1.701-2.777l1.059-4.092
				c0.361-1.418,1.572-2.012,2.988-1.646l15.286,3.944c1.274,0.328,1.89,1.167,1.579,2.371l-0.532,2.051
				C161.712,355.152,162.073,356.076,162.782,356.261z"/>
			<path fill="#49200B" d="M376.409,343.237c0.889-0.222,1.426-1.122,1.205-2.012l-1.141-4.581c-0.223-0.89-1.123-1.431-2.012-1.209
				l-13.906,3.469c-0.891,0.223-1.434,1.119-1.211,2.008l1.146,4.586c0.221,0.889,1.121,1.43,2.012,1.207l4.07-1.015l4.074,16.333
				l-22.549-11.728l3.52-0.878c0.891-0.222,1.428-1.119,1.205-2.008l-1.141-4.585c-0.221-0.89-1.121-1.431-2.006-1.208
				l-13.912,3.471c-0.889,0.22-1.426,1.12-1.211,2.01l1.146,4.582c0.223,0.889,1.123,1.43,2.006,1.207l3.639-0.906l5.742,23.037
				l-3.631,0.907c-0.891,0.22-1.428,1.12-1.211,2.006l1.146,4.585c0.221,0.889,1.123,1.43,2.012,1.207l13.906-3.471
				c0.889-0.219,1.426-1.119,1.205-2.008l-1.141-4.586c-0.223-0.886-1.123-1.426-2.006-1.204l-4.322,1.075l-3.965-15.902
				l21.953,11.418l-2.789,0.695c-0.889,0.223-1.428,1.12-1.205,2.01l1.141,4.584c0.223,0.889,1.123,1.428,2.012,1.205l13.906-3.469
				c0.889-0.222,1.428-1.119,1.211-2.008l-1.146-4.586c-0.223-0.889-1.123-1.43-2.006-1.207l-3.883,0.971l-5.748-23.035
				L376.409,343.237z"/>
			<path fill="#49200B" d="M162.928,150.803l-2.843,0.79c-0.9,0.249-1.426,1.178-1.181,2.076l1.72,6.193l-14.422,4.003
				l-6.461-23.307l4.041-1.12c0.9-0.249,1.426-1.182,1.175-2.079l-1.286-4.638c-0.252-0.897-1.182-1.424-2.076-1.175l-14.111,3.913
				c-0.896,0.248-1.423,1.181-1.174,2.079l1.285,4.638c0.251,0.897,1.181,1.424,2.082,1.175l3.895-1.082l6.461,23.308l-3.895,1.082
				c-0.9,0.249-1.426,1.178-1.175,2.076l1.286,4.637c0.246,0.901,1.176,1.427,2.076,1.176l28.959-8.029
				c0.9-0.251,1.428-1.182,1.176-2.079l-3.456-12.459C164.759,151.081,163.823,150.555,162.928,150.803z"/>
			<path fill="#49200B" d="M264.419,114.312l-14.555,1.111c-0.93,0.073-1.626,0.883-1.556,1.812l0.368,4.798
				c0.07,0.93,0.883,1.626,1.807,1.556l4.117-0.313l-7.871,18.418l-9.556-17.088l3.397-0.257c0.93-0.073,1.626-0.883,1.556-1.813
				l-0.368-4.801c-0.07-0.927-0.883-1.623-1.812-1.553l-14.562,1.114c-0.93,0.07-1.625,0.88-1.549,1.81l0.362,4.798
				c0.075,0.93,0.883,1.625,1.813,1.556l3.396-0.261l-6.848,18.34l-10.578-17.006l4.116-0.316c0.93-0.07,1.626-0.88,1.556-1.812
				l-0.369-4.798c-0.069-0.93-0.883-1.626-1.812-1.553l-14.561,1.114c-0.931,0.07-1.627,0.88-1.557,1.81l0.369,4.798
				c0.07,0.93,0.883,1.626,1.812,1.556l3.532-0.269l14.403,23.152l-3.836,0.292c-0.924,0.073-1.62,0.883-1.55,1.812l0.362,4.798
				c0.076,0.93,0.883,1.626,1.812,1.556l14.562-1.114c0.93-0.07,1.625-0.88,1.555-1.813l-0.367-4.798
				c-0.07-0.93-0.884-1.626-1.813-1.553l-3.198,0.243l6.795-18.199l9.479,16.956l-3.562,0.272c-0.93,0.07-1.625,0.88-1.556,1.813
				l0.368,4.798c0.07,0.93,0.883,1.626,1.812,1.553l14.562-1.114c0.93-0.07,1.625-0.88,1.555-1.81l-0.367-4.798
				c-0.076-0.93-0.884-1.625-1.813-1.555l-3.479,0.266l10.719-25.073l3.533-0.272c0.936-0.07,1.625-0.88,1.555-1.81l-0.367-4.798
				C266.163,114.938,265.354,114.239,264.419,114.312z"/>
			<path fill="#49200B" d="M296.315,130.575l3.637,0.219c1.041,0.064,1.473-0.953,1.537-1.994l0.34-5.664
				c0.205-3.363-2.357-6.254-5.719-6.459l-21.07-1.274c-3.363-0.202-6.252,2.359-6.457,5.722l-0.637,10.559
				c-0.234,3.862,2.258,6.4,6.346,6.649l18.127,1.094c1.264,0.079,2.035,0.944,1.949,2.356l-0.34,5.646
				c-0.059,0.895-0.807,1.743-1.9,1.675l-17.234-1.041c-1.041-0.064-1.445-0.757-1.381-1.874l0.199-3.269
				c0.07-1.19-0.549-1.974-1.59-2.035l-3.064-0.184c-1.111-0.07-1.691,0.555-1.766,1.819l-0.428,7.076
				c-0.205,3.363,2.357,6.254,5.719,6.459l21.064,1.271c3.369,0.205,6.258-2.356,6.463-5.719l0.678-11.301
				c0.27-4.383-2.357-6.556-5.994-6.778l-18.357-1.108c-1.484-0.091-2.309-1.26-2.238-2.45l0.256-4.296
				c0.094-1.485,1.188-2.315,2.674-2.225l16.053,0.971c1.338,0.079,2.117,0.798,2.041,2.062l-0.135,2.155
				C295.022,129.678,295.571,130.531,296.315,130.575z"/>
			<path fill="#49200B" d="M383.497,142.248c0.906,0.214,1.812-0.345,2.029-1.251l1.117-4.682c0.215-0.906-0.346-1.818-1.252-2.035
				l-14.199-3.386c-0.912-0.216-1.824,0.342-2.035,1.251l-1.117,4.681c-0.217,0.906,0.34,1.816,1.246,2.032l4.164,0.991
				l-3.982,16.685l-14.883-21.182l3.596,0.856c0.906,0.217,1.818-0.342,2.029-1.251l1.123-4.682
				c0.211-0.906-0.346-1.815-1.252-2.032l-14.205-3.389c-0.912-0.216-1.818,0.345-2.035,1.251l-1.117,4.681
				c-0.215,0.906,0.346,1.819,1.252,2.035l3.707,0.883l-5.607,23.524l-3.707-0.883c-0.912-0.216-1.82,0.342-2.035,1.251
				l-1.117,4.682c-0.217,0.906,0.338,1.816,1.246,2.032l14.209,3.389c0.908,0.216,1.814-0.345,2.029-1.251l1.117-4.681
				c0.217-0.907-0.344-1.819-1.25-2.035l-4.41-1.053l3.877-16.243l14.492,20.626l-2.85-0.679c-0.906-0.219-1.818,0.342-2.035,1.249
				l-1.109,4.681c-0.217,0.91,0.338,1.819,1.244,2.035l14.211,3.386c0.9,0.219,1.812-0.342,2.029-1.249l1.117-4.681
				c0.217-0.907-0.346-1.819-1.252-2.035l-3.959-0.945l5.609-23.526L383.497,142.248z"/>
			<path fill="#49200B" d="M243.25,385.6l-3.438-0.154l-12.252-24.312l3.538,0.157c0.913,0.041,1.685-0.667,1.726-1.579l0.211-4.723
				c0.04-0.914-0.668-1.687-1.58-1.728l-14.321-0.644c-0.912-0.041-1.69,0.667-1.731,1.582l-0.21,4.72
				c-0.041,0.915,0.667,1.69,1.579,1.731l3.246,0.143l-14.375,23.123l-3.497-0.154c-0.913-0.041-1.69,0.666-1.731,1.581l-0.211,4.72
				c-0.04,0.915,0.668,1.689,1.58,1.73l14.321,0.641c0.918,0.041,1.69-0.67,1.731-1.582l0.21-4.723
				c0.041-0.912-0.667-1.687-1.579-1.728l-3.818-0.169l2.538-4.088l15.456,0.689l2.17,4.299l-3.883-0.173
				c-0.918-0.041-1.69,0.667-1.731,1.579l-0.21,4.723c-0.041,0.914,0.666,1.687,1.578,1.728l14.322,0.64
				c0.918,0.041,1.689-0.666,1.73-1.581l0.211-4.72C244.87,386.416,244.162,385.641,243.25,385.6z M218.63,374.604l4.9-7.881
				l4.176,8.287L218.63,374.604z"/>
			<path fill="#49200B" d="M338.503,378.816l-4.732-27.6c-0.561-3.258-3.66-5.447-6.918-4.889l-20.42,3.503
				c-3.258,0.559-5.445,3.655-4.891,6.915l4.738,27.597c0.555,3.263,3.654,5.45,6.912,4.892l20.42-3.502
				C336.87,385.17,339.063,382.076,338.503,378.816z M328.204,378.586l-12.293,2.105c-1.959,0.336-3.824-0.98-4.158-2.941
				l-2.854-16.609c-0.334-1.961,0.982-3.824,2.941-4.16l12.293-2.108c1.959-0.337,3.824,0.979,4.164,2.941l2.848,16.608
				C331.479,376.384,330.163,378.246,328.204,378.586z"/>
			<path fill="#49200B" d="M213.156,151.725c-0.146-0.921-1.012-1.547-1.936-1.398l-3.456,0.559l-17.258-21.713l3.556-0.573
				c0.924-0.149,1.55-1.018,1.403-1.936l-0.771-4.751c-0.146-0.921-1.012-1.547-1.936-1.398l-14.416,2.325
				c-0.918,0.149-1.543,1.018-1.397,1.936l0.767,4.751c0.152,0.921,1.018,1.547,1.936,1.398l3.269-0.526l-9.55,26.038l-3.52,0.567
				c-0.925,0.149-1.551,1.015-1.398,1.936l0.766,4.751c0.146,0.921,1.012,1.547,1.936,1.401l14.416-2.328
				c0.918-0.149,1.544-1.015,1.397-1.936l-0.767-4.751c-0.146-0.921-1.018-1.547-1.936-1.398l-3.842,0.62l1.685-4.602l15.562-2.512
				l3.047,3.839l-3.906,0.628c-0.918,0.149-1.545,1.018-1.398,1.936l0.766,4.754c0.146,0.918,1.018,1.544,1.937,1.395l14.415-2.325
				c0.924-0.149,1.55-1.015,1.398-1.936L213.156,151.725z M184.39,144.456l3.258-8.875l5.883,7.401L184.39,144.456z"/>
			<path fill="#49200B" d="M334.421,121.631l-20.844-3.325c-3.326-0.529-6.455,1.74-6.988,5.064l-4.484,28.17
				c-0.533,3.327,1.73,6.453,5.059,6.985l20.848,3.321c3.322,0.529,6.451-1.737,6.982-5.064l4.492-28.169
				C340.011,125.289,337.747,122.16,334.421,121.631z M329.327,151.953c-0.193,1.21-1.334,2.035-2.545,1.842l-15.953-2.543
				c-1.211-0.193-2.035-1.331-1.842-2.538l3.27-20.512c0.197-1.21,1.332-2.035,2.543-1.842l15.953,2.544
				c1.211,0.193,2.035,1.327,1.842,2.538L329.327,151.953z"/>
			<path fill="#49200B" d="M279.841,215.33c-2.305-1.62,0.52-3.696,2.334-2.143c2.502,2.146,5.52,0.687,7.244-1.985
				c1.621-2.518,1.639-6.41-2.32-10.6l5.953-17.035l0.018-0.059l0.018-0.064c0.713-2.567,0.537-5.006-0.51-7.053
				c-1.029-2.003-2.865-3.503-5.17-4.225c-7.766-2.424-16.566-3.371-31.408-3.371c-14.837,0-23.645,0.947-31.41,3.371
				c-2.305,0.722-4.141,2.222-5.164,4.225c-1.047,2.047-1.228,4.485-0.514,7.053l0.018,0.064l0.023,0.059l5.947,17.035
				c-3.959,4.19-3.941,8.082-2.316,10.6c1.725,2.672,4.736,4.131,7.246,1.985c1.812-1.553,4.631,0.523,2.327,2.143
				c-12.163,8.553-18.374,21.322-18.374,41.076v68.819c0,2.474,0.176,7.749,3.362,11.237c4.906,5.356,19.532,5.082,38.854,5.082
				s33.947,0.274,38.854-5.082c3.193-3.488,3.363-8.764,3.363-11.237v-68.819C298.216,236.652,292.005,223.883,279.841,215.33z
				 M269.36,212.257h-26.719c-0.754,0-1.362-0.605-1.362-1.356s0.608-1.36,1.362-1.36h26.719c0.75,0,1.357,0.608,1.357,1.36
				S270.11,212.257,269.36,212.257z M275.269,202.23c-0.773-2.675-0.691-7.506-0.691-11.128c0-0.605,0.865-2.158-0.426-3.538
				c-1.299-1.38-9.094-1.559-18.152-1.559s-16.854,0.178-18.146,1.559c-1.299,1.38-0.434,2.933-0.434,3.538
				c0,3.623,0.088,8.453-0.689,11.128c-0.777,2.673-2.76,4.57-4.053,5.521c-0.573,0.418-1.573-1.509-1.573-1.509l-8.468-23.886
				c-0.842-3.134,0.346-5.617,3.111-6.482c7.356-2.301,15.842-3.196,30.252-3.196c14.408,0,22.895,0.895,30.252,3.196
				c2.766,0.866,3.959,3.348,3.111,6.482l-8.463,23.886c0,0-1.006,1.924-1.578,1.509
				C278.028,206.801,276.046,204.903,275.269,202.23z"/>
		</g>
	</g>
</g>
<g id="Border">
	<path fill="#49200B" d="M256,505.056c-66.525,0-129.068-25.906-176.109-72.946C32.851,385.068,6.944,322.525,6.944,256
		S32.851,126.931,79.891,79.891C126.932,32.85,189.475,6.944,256,6.944S385.068,32.85,432.109,79.891
		c47.04,47.041,72.946,109.584,72.946,176.109s-25.906,129.068-72.946,176.109C385.068,479.149,322.525,505.056,256,505.056z
		 M256,39.921c-29.186,0-57.479,5.708-84.097,16.967c-25.727,10.881-48.838,26.465-68.693,46.321
		c-19.855,19.855-35.439,42.967-46.321,68.693C45.631,198.52,39.922,226.814,39.922,256s5.709,57.479,16.967,84.097
		c10.882,25.727,26.466,48.838,46.321,68.693s42.967,35.439,68.693,46.321c26.617,11.258,54.911,16.967,84.097,16.967
		s57.479-5.709,84.098-16.967c25.726-10.882,48.838-26.466,68.692-46.321c19.855-19.855,35.439-42.967,46.321-68.693
		c11.258-26.617,16.967-54.911,16.967-84.097s-5.709-57.48-16.967-84.097c-10.882-25.727-26.466-48.838-46.321-68.693
		c-19.854-19.855-42.967-35.44-68.692-46.321C313.479,45.63,285.186,39.921,256,39.921z"/>
	<g>
		<path fill="#EBA380" d="M256,16.921c32.28,0,63.589,6.32,93.057,18.784c28.469,12.041,54.037,29.281,75.997,51.241
			s39.199,47.529,51.24,75.997c12.464,29.468,18.784,60.777,18.784,93.057c0,32.279-6.319,63.589-18.784,93.057
			c-12.041,28.468-29.28,54.037-51.24,75.997s-47.528,39.199-75.997,51.24c-29.468,12.464-60.776,18.784-93.057,18.784
			c-32.28,0-63.589-6.32-93.057-18.784c-28.468-12.041-54.037-29.28-75.997-51.24c-21.96-21.96-39.2-47.529-51.241-75.997
			C23.242,319.589,16.922,288.279,16.922,256c0-32.28,6.32-63.589,18.784-93.057c12.041-28.468,29.281-54.037,51.241-75.997
			c21.959-21.96,47.528-39.2,75.997-51.241C192.411,23.241,223.72,16.921,256,16.921 M256,6.921
			C118.438,6.921,6.922,118.438,6.922,256c0,137.562,111.516,249.078,249.078,249.078S505.078,393.562,505.078,256
			C505.078,118.438,393.562,6.921,256,6.921L256,6.921z"/>
	</g>
</g>
<g id="Status_Simulation" display="none">
	<g display="inline">
		<path d="M0,0v512h512V0H0z M257,505.078C119.438,505.078,7.922,393.562,7.922,256C7.922,118.438,119.438,6.921,257,6.921
			S506.078,118.438,506.078,256C506.078,393.562,394.562,505.078,257,505.078z"/>
		<circle fill="none" stroke="#FBB03B" stroke-width="5" stroke-miterlimit="10" cx="256" cy="256" r="249.078"/>
	</g>
</g>
<g id="Hints">
</g>
<g id="Guides" display="none">
</g>
</svg>
